<mxfile host="app.diagrams.net" modified="2024-04-06T08:37:10.922Z" agent="Mozilla/5.0 (Windows NT 10.0; Win64; x64) AppleWebKit/537.36 (KHTML, like Gecko) Chrome/123.0.0.0 Safari/537.36" etag="btbKXfYPhfYj6TEYuU37" version="24.2.2" type="device">
  <diagram id="0WCDO6U-WihZIFuFKjy7" name="Page-2">
    <mxGraphModel dx="1500" dy="807" grid="1" gridSize="10" guides="1" tooltips="1" connect="1" arrows="1" fold="1" page="1" pageScale="1" pageWidth="1169" pageHeight="827" math="0" shadow="0">
      <root>
        <mxCell id="0" />
        <mxCell id="1" parent="0" />
        <mxCell id="OCZk_DlGYbDUoAnqIo32-2" value="" style="rounded=0;whiteSpace=wrap;html=1;" vertex="1" parent="1">
          <mxGeometry x="165" y="155" width="840" height="600" as="geometry" />
        </mxCell>
        <mxCell id="BhS28cAUDIW34_o0ImL9-1" value="" style="rounded=0;whiteSpace=wrap;html=1;" parent="1" vertex="1">
          <mxGeometry x="417.5" y="260" width="335" height="390" as="geometry" />
        </mxCell>
        <mxCell id="BhS28cAUDIW34_o0ImL9-2" value="&lt;font style=&quot;font-size: 27px;&quot;&gt;Текст&lt;/font&gt;" style="text;html=1;align=center;verticalAlign=middle;whiteSpace=wrap;rounded=0;" parent="1" vertex="1">
          <mxGeometry x="555" y="280" width="60" height="30" as="geometry" />
        </mxCell>
        <mxCell id="BhS28cAUDIW34_o0ImL9-3" value="Текст" style="text;html=1;align=center;verticalAlign=middle;whiteSpace=wrap;rounded=0;" parent="1" vertex="1">
          <mxGeometry x="417.5" y="320" width="60" height="30" as="geometry" />
        </mxCell>
        <mxCell id="BhS28cAUDIW34_o0ImL9-4" value="Поле для вводу" style="rounded=0;whiteSpace=wrap;html=1;align=left;" parent="1" vertex="1">
          <mxGeometry x="430" y="350" width="310" height="25" as="geometry" />
        </mxCell>
        <mxCell id="BhS28cAUDIW34_o0ImL9-9" value="Кнопка" style="rounded=1;whiteSpace=wrap;html=1;" parent="1" vertex="1">
          <mxGeometry x="430" y="600" width="240" height="38" as="geometry" />
        </mxCell>
        <mxCell id="BhS28cAUDIW34_o0ImL9-10" value="Текст" style="text;html=1;align=center;verticalAlign=middle;whiteSpace=wrap;rounded=0;" parent="1" vertex="1">
          <mxGeometry x="417.5" y="386" width="60" height="30" as="geometry" />
        </mxCell>
        <mxCell id="BhS28cAUDIW34_o0ImL9-11" value="&lt;span style=&quot;text-align: center;&quot;&gt;Поле для вводу&lt;/span&gt;" style="rounded=0;whiteSpace=wrap;html=1;align=left;" parent="1" vertex="1">
          <mxGeometry x="430" y="416" width="310" height="25" as="geometry" />
        </mxCell>
        <mxCell id="BhS28cAUDIW34_o0ImL9-12" value="Текст" style="text;html=1;align=center;verticalAlign=middle;whiteSpace=wrap;rounded=0;" parent="1" vertex="1">
          <mxGeometry x="417.5" y="455" width="60" height="30" as="geometry" />
        </mxCell>
        <mxCell id="BhS28cAUDIW34_o0ImL9-13" value="Поле для вводу" style="rounded=0;whiteSpace=wrap;html=1;align=left;" parent="1" vertex="1">
          <mxGeometry x="430" y="485" width="310" height="25" as="geometry" />
        </mxCell>
        <mxCell id="BhS28cAUDIW34_o0ImL9-14" value="Текст з посиланням" style="text;html=1;align=center;verticalAlign=middle;whiteSpace=wrap;rounded=0;" parent="1" vertex="1">
          <mxGeometry x="680" y="604" width="60" height="30" as="geometry" />
        </mxCell>
        <mxCell id="BhS28cAUDIW34_o0ImL9-15" value="Текст" style="text;html=1;align=center;verticalAlign=middle;whiteSpace=wrap;rounded=0;" parent="1" vertex="1">
          <mxGeometry x="417.5" y="520" width="60" height="30" as="geometry" />
        </mxCell>
        <mxCell id="BhS28cAUDIW34_o0ImL9-16" value="Поле для вводу" style="rounded=0;whiteSpace=wrap;html=1;align=left;" parent="1" vertex="1">
          <mxGeometry x="430" y="550" width="310" height="25" as="geometry" />
        </mxCell>
      </root>
    </mxGraphModel>
  </diagram>
</mxfile>
